<svg width="76" height="82" viewBox="0 0 76 82" fill="none" xmlns="http://www.w3.org/2000/svg">
<path d="M46.3071 67.1994C46.5106 67.3323 46.7147 67.4613 46.9192 67.5863C47.1237 67.7114 47.3294 67.8426 47.5364 67.9799L49.4731 66.4668C49.3899 66.2328 49.3107 65.9992 49.2353 65.7661C49.1591 65.5408 49.0828 65.3156 49.0065 65.0904L49.8754 64.4116C50.0864 65.0371 50.2769 65.6181 50.4468 66.1547C50.6168 66.6912 50.7739 67.2022 50.9182 67.6876C51.058 68.1765 51.1863 68.6459 51.3029 69.096C51.4195 69.546 51.5283 69.9951 51.6292 70.4432L50.8399 71.0598C50.4295 70.8535 50.0201 70.6394 49.6116 70.4173C49.2032 70.1953 48.7809 69.9556 48.3448 69.6981C47.9043 69.4442 47.4443 69.1698 46.9648 68.8751C46.4809 68.5838 45.961 68.2602 45.4051 67.9041L46.3071 67.1994ZM50.5568 69.8498C50.4754 69.536 50.3697 69.1593 50.2398 68.7196C50.1055 68.2834 49.9554 67.8132 49.7894 67.3092L48.2772 68.4906C48.7262 68.7736 49.1499 69.0335 49.5486 69.2703C49.9472 69.5071 50.2833 69.7003 50.5568 69.8498Z" fill="#718176"/>
<path d="M32.7008 74.4117L32.8246 73.5027L34.601 73.7448L35.2646 68.8744L36.3237 69.0187L35.6601 73.8891L37.4364 74.1311L37.3126 75.0401L32.7008 74.4117Z" fill="#718176"/>
<path d="M24.2885 65.7673C24.7236 65.8154 25.1065 65.9256 25.4375 66.0977C25.7685 66.2698 26.0397 66.4973 26.2511 66.7804C26.462 67.0691 26.6108 67.4073 26.6978 67.7952C26.7847 68.183 26.8013 68.6196 26.7477 69.1048C26.694 69.59 26.574 70.0114 26.3876 70.369C26.1957 70.726 25.9573 71.0186 25.6724 71.2468C25.3868 71.4805 25.0638 71.6452 24.7032 71.7408C24.3426 71.8364 23.9643 71.8623 23.5683 71.8185C23.3285 71.792 23.1132 71.7484 22.9223 71.6877C22.7308 71.6327 22.565 71.5748 22.4249 71.5142C22.2849 71.4535 22.1702 71.3929 22.081 71.3322C21.9917 71.2715 21.9288 71.2278 21.8922 71.2012L22.2971 70.3738C22.4217 70.4722 22.6054 70.5716 22.8484 70.6719C23.0851 70.7771 23.3485 70.8458 23.6385 70.8778C23.8895 70.9056 24.1287 70.8869 24.356 70.8217C24.5828 70.7621 24.7866 70.6548 24.9675 70.4998C25.1428 70.3442 25.2895 70.1403 25.4077 69.888C25.526 69.6358 25.6042 69.3368 25.6425 68.991C25.6764 68.6842 25.6741 68.3989 25.6356 68.135C25.5914 67.8704 25.5074 67.6353 25.3833 67.4296C25.2587 67.2295 25.0907 67.0642 24.8793 66.9335C24.6673 66.8085 24.4052 66.7286 24.0929 66.6941C23.7192 66.6528 23.4112 66.6554 23.169 66.702C22.9261 66.7541 22.7368 66.8066 22.6012 66.8593L22.412 65.9662C22.4839 65.929 22.5809 65.8946 22.7029 65.8629C22.8194 65.8306 22.9582 65.8008 23.1193 65.7735C23.2798 65.7517 23.4588 65.7405 23.6565 65.7397C23.8548 65.7335 24.0655 65.7426 24.2885 65.7673Z" fill="#718176"/>
<path d="M36.3765 12.8217V6.9889L40.063 6.9889V7.88949H37.437V9.37924L39.7684 9.37924V10.2798L37.437 10.2798V12.8217H36.3765Z" fill="#718176"/>
<path d="M47.8808 15.0395C47.5146 14.8825 47.2209 14.6955 46.9996 14.4786C46.7804 14.2564 46.6216 14.0114 46.5234 13.7435C46.4304 13.4777 46.3947 13.197 46.4164 12.9011C46.4382 12.6053 46.5116 12.3011 46.6367 11.9885L47.9907 8.60495L48.9731 9.02615L47.6566 12.3159C47.5586 12.5608 47.5 12.7828 47.4807 12.982C47.4686 13.1783 47.4897 13.3521 47.5439 13.5035C47.6032 13.6571 47.6895 13.7887 47.8028 13.8983C47.9212 14.0101 48.0655 14.1025 48.2356 14.1754C48.4058 14.2484 48.571 14.2887 48.7311 14.2963C48.8912 14.3039 49.0421 14.274 49.1838 14.2066C49.3308 14.1414 49.4644 14.0339 49.5848 13.8841C49.7124 13.7313 49.8252 13.5325 49.9232 13.2877L51.2397 9.99789L52.2221 10.4191L50.8681 13.8026C50.743 14.1152 50.5845 14.3829 50.3926 14.6058C50.2058 14.8309 49.9862 15.0022 49.7337 15.1198C49.4864 15.2396 49.2068 15.2967 48.8948 15.2911C48.585 15.2803 48.247 15.1965 47.8808 15.0395Z" fill="#718176"/>
<path d="M57.3243 21.9519C57.414 21.5847 57.5036 21.1852 57.5933 20.7534C57.6869 20.3176 57.7746 19.8757 57.8565 19.4278C57.9422 18.9758 58.0144 18.5299 58.0729 18.09C58.1391 17.6502 58.1879 17.2446 58.2191 16.8734L55.3184 19.8757L54.5932 19.1251L58.646 14.9303L59.2483 15.5538C59.2405 15.8847 59.2132 16.26 59.1665 16.6797C59.1236 17.0953 59.0709 17.5211 59.0086 17.9569C58.9501 18.3967 58.8818 18.8305 58.8039 19.2583C58.7337 19.686 58.6596 20.0775 58.5816 20.4326L61.2718 17.6482L62.0028 18.4048L57.95 22.5996L57.3243 21.9519Z" fill="#718176"/>
<path d="M62.8549 30.175C62.67 29.7783 62.564 29.3918 62.537 29.0154C62.51 28.639 62.5605 28.283 62.6886 27.9472C62.8216 27.6089 63.0284 27.2961 63.3089 27.0086C63.5894 26.7211 63.9472 26.4666 64.3823 26.2452C64.8174 26.0238 65.2332 25.894 65.6299 25.8557C66.029 25.8224 66.3981 25.8643 66.7372 25.9811C67.0813 26.0954 67.3869 26.2797 67.654 26.5339C67.921 26.7881 68.1387 27.0958 68.3071 27.4568C68.4091 27.6755 68.484 27.8827 68.532 28.0785C68.585 28.2718 68.6223 28.4447 68.644 28.5973C68.6656 28.7499 68.6741 28.8809 68.6694 28.9902C68.6647 29.0996 68.6607 29.1771 68.6573 29.2229L67.7531 29.3339C67.7711 29.1737 67.7593 28.9626 67.7176 28.7006C67.6833 28.4413 67.6045 28.1793 67.4812 27.9149C67.3745 27.6861 67.2349 27.4928 67.0624 27.3352C66.8949 27.1751 66.6992 27.0607 66.4754 26.9921C66.254 26.9286 66.0068 26.916 65.7339 26.9543C65.4609 26.9925 65.1694 27.0905 64.8593 27.2483C64.5843 27.3883 64.346 27.5473 64.1444 27.7254C63.9452 27.9086 63.7914 28.1096 63.683 28.3283C63.5797 28.5445 63.5279 28.7785 63.5277 29.0303C63.5326 29.2795 63.6014 29.5465 63.7342 29.8313C63.8931 30.172 64.0548 30.4326 64.2194 30.6131C64.389 30.7911 64.5311 30.9233 64.6457 31.0097L63.994 31.6623C63.9255 31.6216 63.8464 31.5581 63.7566 31.4716C63.6691 31.3903 63.5722 31.2886 63.4658 31.1666C63.3644 31.042 63.2622 30.8958 63.1592 30.728C63.0512 30.5627 62.9498 30.3784 62.8549 30.175Z" fill="#718176"/>
<path d="M70.4675 39.2509V40.3114H64.6348V39.2509H70.4675Z" fill="#718176"/>
<path d="M65.9142 50.0835C65.6202 49.9575 65.3375 49.879 65.0659 49.848C64.7995 49.8192 64.5541 49.8361 64.3297 49.8985C64.1084 49.9684 63.9117 50.0825 63.7396 50.2406C63.5676 50.3988 63.4315 50.6029 63.3314 50.853C63.2335 51.0978 63.1913 51.3391 63.2049 51.5769C63.2185 51.8146 63.2807 52.0366 63.3915 52.2428C63.5054 52.4564 63.6664 52.6505 63.8744 52.8252C64.0876 53.002 64.3412 53.1535 64.6352 53.2795C64.9291 53.4055 65.2093 53.4829 65.4757 53.5117C65.7473 53.5427 65.9937 53.5232 66.2151 53.4533C66.4394 53.3908 66.6377 53.2805 66.8097 53.1224C66.9818 52.9642 67.1168 52.7627 67.2148 52.5178C67.3148 52.2678 67.3581 52.0239 67.3445 51.7861C67.3309 51.5484 67.2671 51.3227 67.1532 51.1091C67.0372 50.9007 66.8752 50.7091 66.6672 50.5345C66.4591 50.3599 66.2081 50.2095 65.9142 50.0835ZM64.2224 54.311C63.7634 54.1142 63.3867 53.8703 63.0923 53.5793C62.7958 53.2935 62.5769 52.9799 62.4356 52.6386C62.2973 52.3047 62.2325 51.9534 62.241 51.5848C62.2496 51.2161 62.3258 50.8521 62.4697 50.4926C62.6135 50.1332 62.8094 49.8174 63.0572 49.5453C63.303 49.2783 63.5899 49.0748 63.9179 48.9347C64.2489 48.802 64.6179 48.7404 65.0249 48.7501C65.4319 48.7598 65.8648 48.8631 66.3238 49.0598C66.7828 49.2566 67.1569 49.4994 67.4462 49.7882C67.7406 50.0792 67.9584 50.3954 68.0998 50.7367C68.239 51.0833 68.3043 51.4409 68.2958 51.8095C68.2872 52.1781 68.2121 52.5395 68.0703 52.8938C67.9285 53.248 67.7348 53.5586 67.489 53.8255C67.2432 54.0925 66.9548 54.2923 66.6237 54.425C66.2906 54.5629 65.9206 54.627 65.5136 54.6174C65.1118 54.6099 64.6814 54.5077 64.2224 54.311Z" fill="#718176"/>
<path d="M55.0863 59.9265C55.4411 60.0193 55.8271 60.1121 56.2442 60.2049C56.6653 60.3018 57.0922 60.3926 57.525 60.4773C57.9616 60.5661 58.3924 60.6408 58.8174 60.7013C59.2424 60.7699 59.6342 60.8203 59.9929 60.8526L57.0922 57.8503L57.8174 57.0997L61.8701 61.2945L61.2678 61.918C60.9481 61.9099 60.5855 61.8816 60.18 61.8332C59.7785 61.7888 59.3671 61.7344 58.9461 61.6698C58.5211 61.6093 58.102 61.5386 57.6887 61.4579C57.2754 61.3853 56.8973 61.3086 56.5542 61.2279L59.2443 64.0123L58.5133 64.769L54.4605 60.5742L55.0863 59.9265Z" fill="#718176"/>
<path d="M13.1481 49.5623C13.3107 49.9687 13.3948 50.3599 13.4003 50.7359C13.4058 51.112 13.3347 51.4628 13.1871 51.7886C13.0344 52.1165 12.8092 52.4144 12.5117 52.6824C12.2141 52.9503 11.8409 53.1805 11.3923 53.3728C10.9436 53.5652 10.5194 53.6677 10.1197 53.6804C9.71786 53.6879 9.35038 53.6227 9.01726 53.4847C8.67897 53.349 8.38332 53.1462 8.13029 52.8763C7.87726 52.6064 7.67674 52.2865 7.52872 51.9166C7.43908 51.6926 7.37582 51.4817 7.33895 51.2839C7.29693 51.0883 7.26944 50.9139 7.2565 50.7608C7.24355 50.6077 7.24256 50.4769 7.25353 50.3684C7.26451 50.2599 7.27301 50.1831 7.27905 50.1377L8.19153 50.0853C8.16421 50.2435 8.16393 50.4541 8.1907 50.7173C8.21023 50.9775 8.2742 51.243 8.38261 51.5139C8.47643 51.7483 8.60524 51.9494 8.76906 52.1172C8.92773 52.2872 9.11722 52.4135 9.33755 52.496C9.5558 52.5733 9.80279 52.6017 10.0785 52.5812C10.3543 52.5606 10.652 52.4818 10.9718 52.3447C11.2554 52.2231 11.5033 52.0802 11.7155 51.916C11.9257 51.7465 12.0913 51.5565 12.2124 51.3459C12.3284 51.1375 12.3937 50.9081 12.4083 50.6577C12.4177 50.4095 12.3641 50.1396 12.2473 49.8478C12.1077 49.4988 11.9605 49.2293 11.8059 49.0392C11.6461 48.8514 11.5114 48.7108 11.4015 48.6175L12.092 48.0102C12.1582 48.055 12.2339 48.1233 12.3189 48.215C12.4019 48.3015 12.4932 48.4089 12.5928 48.537C12.6873 48.6674 12.7813 48.8194 12.8749 48.9929C12.9737 49.1641 13.0647 49.354 13.1481 49.5623Z" fill="#718176"/>
<path d="M8.43342 41.5072C8.75325 41.5072 9.04503 41.468 9.30875 41.3894C9.56686 41.3108 9.7885 41.1986 9.97367 41.0527C10.1532 40.9012 10.2935 40.7189 10.3945 40.5056C10.4955 40.2924 10.546 40.0511 10.546 39.7818C10.546 39.5181 10.4955 39.2796 10.3945 39.0664C10.2935 38.8532 10.1532 38.6736 9.97367 38.5277C9.7885 38.3762 9.56686 38.2612 9.30875 38.1826C9.04503 38.1041 8.75325 38.0648 8.43342 38.0648C8.11359 38.0648 7.82461 38.1041 7.5665 38.1826C7.30278 38.2612 7.08114 38.3762 6.90159 38.5277C6.71642 38.6736 6.57334 38.8532 6.47234 39.0664C6.37134 39.2796 6.32084 39.5181 6.32084 39.7818C6.32084 40.0511 6.37134 40.2924 6.47234 40.5056C6.57334 40.7189 6.71642 40.9012 6.90159 41.0527C7.08675 41.1986 7.30839 41.3108 7.5665 41.3894C7.82461 41.468 8.11359 41.5072 8.43342 41.5072ZM8.43342 36.9538C8.93281 36.9538 9.37328 37.0296 9.75484 37.1811C10.1364 37.327 10.4562 37.529 10.7143 37.7871C10.9668 38.0396 11.1576 38.337 11.2867 38.6792C11.4157 39.0215 11.4803 39.3862 11.4803 39.7734C11.4803 40.1606 11.4157 40.5281 11.2867 40.876C11.1576 41.2183 10.9668 41.5185 10.7143 41.7766C10.4562 42.0291 10.1364 42.2311 9.75484 42.3826C9.37328 42.5341 8.93281 42.6098 8.43342 42.6098C7.93403 42.6098 7.49636 42.5341 7.12042 42.3826C6.73886 42.2311 6.41903 42.0263 6.16092 41.7681C5.90281 41.5044 5.70923 41.2014 5.58017 40.8591C5.45111 40.5169 5.38659 40.155 5.38659 39.7734C5.38659 39.3918 5.45111 39.0299 5.58017 38.6876C5.70923 38.3454 5.90281 38.048 6.16092 37.7955C6.41903 37.5374 6.73886 37.3326 7.12042 37.1811C7.49636 37.0296 7.93403 36.9538 8.43342 36.9538Z" fill="#718176"/>
<path d="M7.39057 28.3524C7.63241 28.3218 7.92329 28.297 8.26322 28.2779C8.60315 28.2589 8.9596 28.2439 9.33255 28.2329C9.70036 28.2197 10.0749 28.2124 10.456 28.211C10.8342 28.2022 11.1839 28.1965 11.5051 28.1939C11.2798 27.9569 11.0353 27.6995 10.7719 27.4218C10.5033 27.1418 10.2434 26.8626 9.99238 26.5841C9.73617 26.3033 9.49439 26.0318 9.26704 25.7696C9.03968 25.5073 8.85095 25.2769 8.70085 25.0782L9.05734 24.1874C9.46805 24.3086 9.9035 24.4434 10.3637 24.5919C10.8187 24.7381 11.2846 24.8951 11.7612 25.0629C12.2348 25.2232 12.7114 25.3909 13.1912 25.5661C13.6678 25.7338 14.1321 25.9023 14.5839 26.0716L14.1962 27.0406C13.5638 26.7939 12.9113 26.5447 12.2387 26.2929C11.5682 26.0359 10.912 25.8035 10.2702 25.5954C10.3659 25.7036 10.4806 25.8321 10.6144 25.981C10.7481 26.1299 10.8953 26.2906 11.0558 26.4632C11.2112 26.6336 11.3732 26.8099 11.542 26.9921C11.7128 27.1691 11.8785 27.3439 12.0391 27.5165C12.1965 27.6816 12.3457 27.8371 12.4867 27.983C12.6226 28.1267 12.7394 28.25 12.8371 28.353L12.5432 29.0875C12.4037 29.0888 12.2343 29.0894 12.0349 29.0893C11.8356 29.0893 11.6228 29.0927 11.3965 29.0994C11.1672 29.0988 10.9306 29.1011 10.6868 29.1064C10.4451 29.1065 10.2111 29.11 9.98482 29.1167C9.75857 29.1235 9.54729 29.1306 9.35099 29.1379C9.14954 29.1431 8.98061 29.15 8.84422 29.1587C9.44015 29.4813 10.0619 29.7998 10.7095 30.114C11.3592 30.4231 11.9919 30.7218 12.6076 31.0102L12.2198 31.9791C11.7846 31.7681 11.335 31.5479 10.871 31.3185C10.409 31.0838 9.95224 30.8513 9.50061 30.6211C9.0459 30.3834 8.60771 30.1498 8.18603 29.9202C7.76436 29.6906 7.37724 29.4727 7.02469 29.2666L7.39057 28.3524Z" fill="#718176"/>
<path d="M16.6198 19.8661C16.842 20.0962 17.072 20.2778 17.3099 20.4109C17.5438 20.5401 17.7758 20.6187 18.0058 20.647C18.2358 20.6672 18.46 20.6369 18.6783 20.5562C18.8967 20.4755 19.0994 20.3383 19.2865 20.1446C19.4698 19.9549 19.6004 19.7471 19.6784 19.5211C19.7563 19.2951 19.7836 19.0651 19.7602 18.8311C19.7368 18.5889 19.6628 18.3468 19.538 18.1047C19.4093 17.8585 19.2339 17.6205 19.0117 17.3904C18.7894 17.1604 18.5614 16.9809 18.3274 16.8517C18.0896 16.7186 17.8557 16.6419 17.6257 16.6217C17.3956 16.5935 17.1714 16.6197 16.9531 16.7004C16.7348 16.7811 16.534 16.9163 16.3508 17.1059C16.1636 17.2996 16.0311 17.5095 15.9531 17.7355C15.8751 17.9614 15.8478 18.1955 15.8712 18.4376C15.8985 18.6757 15.9745 18.9158 16.0993 19.1579C16.2241 19.4001 16.3975 19.6361 16.6198 19.8661ZM19.7836 16.5914C20.1306 16.9506 20.384 17.3218 20.5439 17.7052C20.7076 18.0845 20.7895 18.4598 20.7895 18.8311C20.7895 19.1943 20.7154 19.5453 20.5673 19.8843C20.4191 20.2233 20.2105 20.532 19.9415 20.8104C19.6725 21.0889 19.3723 21.3068 19.0409 21.4642C18.7134 21.6175 18.3723 21.6962 18.0175 21.7002C17.6627 21.6962 17.3001 21.6114 16.9297 21.446C16.5593 21.2805 16.2007 21.0182 15.8537 20.6591C15.5067 20.2999 15.2552 19.9307 15.0993 19.5514C14.9394 19.168 14.8595 18.7907 14.8595 18.4195C14.8634 18.0442 14.9394 17.687 15.0876 17.3481C15.2357 17.0091 15.4423 16.7024 15.7075 16.428C15.9726 16.1536 16.2689 15.9397 16.5964 15.7864C16.9239 15.633 17.265 15.5584 17.6198 15.5624C17.9785 15.5624 18.343 15.6451 18.7134 15.8106C19.0799 15.972 19.4366 16.2323 19.7836 16.5914Z" fill="#718176"/>
<ellipse cx="16.0373" cy="63.3189" rx="1.56834" ry="1.6233" fill="#626C65"/>
<ellipse cx="42.5683" cy="71.6233" rx="1.56834" ry="1.6233" fill="#626C65"/>
<ellipse cx="25.5683" cy="11.6233" rx="1.56834" ry="1.6233" fill="#626C65"/>
</svg>
