<svg xmlns="http://www.w3.org/2000/svg" viewBox="0 0 664.37 67.83"><title>LOGOTIPO_COLOR</title><g id="Capa_2" data-name="Capa 2"><g id="LOGO"><path d="M475.5.74h21.7V18.15H475.5a16.1,16.1,0,0,0,0,32.19h21.69v17.4H475.5a33.5,33.5,0,0,1,0-67Zm30.41,42.1a24.93,24.93,0,0,0,24.9,24.9h28.77V50.34H530.81A7.5,7.5,0,0,1,523.32,43h26V25.54h-26V18.15h36.27V.74H505.91ZM616.33.72h-8.71V11.78A47.84,47.84,0,0,0,577,.72h-8.71V67.55h17.41V19.38a30.69,30.69,0,0,1,21.93,29.38V67.55H625V19.38A30.69,30.69,0,0,1,647,48.76V67.55h17.41V48.76A48.09,48.09,0,0,0,616.33.72Z" style="fill:#759c32"/><path d="M66.38,18.13l-24.49,0V67.53H24.47l0-49.36L0,18.2,0,.79,66.36.72Zm72.5,16.11A33.5,33.5,0,1,1,105.39.74,33.53,33.53,0,0,1,138.88,34.24Zm-17.4,0a16.1,16.1,0,1,0-16.09,16.1A16.11,16.11,0,0,0,121.48,34.24Zm130.89,8.6a24.93,24.93,0,0,0,24.9,24.9h28.78V50.34H277.27A7.51,7.51,0,0,1,269.78,43h26V25.54h-26V18.15h36.27V.74H252.37ZM370.19,53.29V67.52l-17.4,0,0-14.24A10.36,10.36,0,0,0,342.44,43H332.16V67.53H314.75V.74H349a21.09,21.09,0,0,1,15.34,35.57A27.65,27.65,0,0,1,370.19,53.29ZM349,25.54a3.7,3.7,0,1,0,0-7.39H332.16v7.39ZM226.26,49.08A30.7,30.7,0,0,1,204.33,19.7V.91H186.92V49.08A30.7,30.7,0,0,1,165,19.7V.91h-17.4V19.7a48.09,48.09,0,0,0,48,48h8.7V56.68A47.85,47.85,0,0,0,235,67.74h8.7V.91H226.26Zm174-31.46h33V0h-33a21.37,21.37,0,0,0,0,42.73h11.66a3.74,3.74,0,1,1,0,7.48h-33V67.83h33a21.37,21.37,0,1,0,0-42.73H400.27a3.74,3.74,0,0,1,0-7.48Z" style="fill:#302d61"/></g></g></svg>