<?xml version="1.0" encoding="UTF-8"?> <!-- Generator: Adobe Illustrator 26.0.2, SVG Export Plug-In . SVG Version: 6.00 Build 0) --> <svg xmlns="http://www.w3.org/2000/svg" xmlns:xlink="http://www.w3.org/1999/xlink" version="1.1" id="Layer_1" x="0px" y="0px" viewBox="0 0 55.3 55.3" style="enable-background:new 0 0 55.3 55.3;" xml:space="preserve"> <style type="text/css"> .st0{opacity:0.1;fill:#000000;} .st1{fill:#F2F2F2;stroke:#000000;stroke-width:2.732;stroke-linecap:round;stroke-linejoin:round;stroke-miterlimit:10;} .st2{fill:none;stroke:#000000;stroke-width:2.732;stroke-linecap:round;stroke-linejoin:round;stroke-miterlimit:10;} .st3{fill:#000000;} </style> <g> <circle class="st0" cx="27.65" cy="27.65" r="26.89"></circle> <g> <path class="st1" d="M40.01,23.88c0-3.23-1.84-6.05-4.53-7.47c-1.25,6.45-6.93,11.32-13.74,11.32c-2.41,0-4.68-0.61-6.66-1.68 v12.2c0,4.64,3.8,8.44,8.44,8.44h8.05c4.64,0,8.44-3.8,8.44-8.44v-8.78"></path> <path class="st1" d="M35.48,16.41c-1.17-0.62-2.5-0.97-3.91-0.97h-8.05c-4.64,0-8.44,3.8-8.44,8.44v2.17 c1.98,1.07,4.25,1.68,6.66,1.68C28.55,27.74,34.23,22.86,35.48,16.41z"></path> <path class="st2" d="M33.35,41.48h9.29c1.28,0,2.32-1.04,2.32-2.32v-5.74"></path> <path class="st3" d="M31.93,43.44h-3.31c-0.97,0-1.76-0.79-1.76-1.76v-0.75c0-0.97,0.79-1.76,1.76-1.76h3.31 c0.97,0,1.76,0.79,1.76,1.76v0.75C33.69,42.65,32.9,43.44,31.93,43.44z"></path> <path class="st2" d="M42.62,13.99c1.51,1.95,2.38,4.44,2.38,7.5"></path> <path class="st2" d="M10.25,21.5c0-8.78,7.18-12.88,15.96-12.88h2.83c3.15,0,6.09,0.53,8.57,1.61"></path> <path class="st3" d="M12.39,31.85c0,1.47-1.7,2.47-3.21,1.87c-2.76-1.1-4.69-3.56-4.69-6.43s1.92-5.33,4.69-6.43 c1.51-0.6,3.21,0.4,3.21,1.87V31.85z"></path> <path class="st3" d="M42.91,31.85c0,1.47,1.7,2.47,3.21,1.87c2.76-1.1,4.69-3.56,4.69-6.43s-1.92-5.33-4.69-6.43 c-1.51-0.6-3.21,0.4-3.21,1.87V31.85z"></path> </g> </g> </svg> 