<svg xmlns="http://www.w3.org/2000/svg" xmlns:xlink="http://www.w3.org/1999/xlink" viewBox="0,0,256,256" width="50px" height="50px"><g fill="none" fill-rule="nonzero" stroke="none" stroke-width="1" stroke-linecap="butt" stroke-linejoin="miter" stroke-miterlimit="10" stroke-dasharray="" stroke-dashoffset="0" font-family="none" font-weight="none" font-size="none" text-anchor="none" style="mix-blend-mode: normal"><g transform="scale(2,2)"><path d="M64,14c-27.61424,0 -50,22.38576 -50,50c0,27.61424 22.38576,50 50,50c27.61424,0 50,-22.38576 50,-50c0,-27.61424 -22.38576,-50 -50,-50z" fill-opacity="0" fill="#ffffff"></path><path d="M64,117c-29.2,0 -53,-23.8 -53,-53c0,-29.2 23.8,-53 53,-53c29.2,0 53,23.8 53,53c0,29.2 -23.8,53 -53,53zM64,17c-25.9,0 -47,21.1 -47,47c0,25.9 21.1,47 47,47c25.9,0 47,-21.1 47,-47c0,-25.9 -21.1,-47 -47,-47z" fill="#444b54"></path><path d="M86.5,52h-45c-1.7,0 -3,-1.3 -3,-3c0,-1.7 1.3,-3 3,-3h45c1.7,0 3,1.3 3,3c0,1.7 -1.3,3 -3,3zM86.5,67h-45c-1.7,0 -3,-1.3 -3,-3c0,-1.7 1.3,-3 3,-3h45c1.7,0 3,1.3 3,3c0,1.7 -1.3,3 -3,3z" fill="#444b54"></path><g fill="#444b54"><path d="M86.5,82h-45c-1.7,0 -3,-1.3 -3,-3c0,-1.7 1.3,-3 3,-3h45c1.7,0 3,1.3 3,3c0,1.7 -1.3,3 -3,3z"></path></g></g></g></svg>