<svg id="Capa_1" data-name="Capa 1" xmlns="http://www.w3.org/2000/svg" viewBox="0 0 1080 1080"><title>SOSTENIBILIDAD_COLOR</title><path d="M667.49,621.82h88.14L755.32,762l-114-.25.31-137.57A139.63,139.63,0,0,1,667.49,621.82Z" style="fill:#ffffff"/><path d="M756.3,318l-.42,189.84H667.49a249.43,249.43,0,0,0-25.62,1.29l.17-76.37C470.59,444.39,334.71,587.58,334.71,761.89h-114C220.7,517.11,419.84,318,664.63,318Z" style="fill:#ffffff"/><path d="M641.87,509.1l-.25,115.11c-64.94,12.16-114.23,69.29-114.23,137.68h-114C413.41,630.44,513.77,522,641.87,509.1Z" style="fill:#728333"/><polygon points="859.3 507.81 859.3 621.82 755.63 621.82 755.88 507.81 859.3 507.81" style="fill:#728333"/></svg>